# xmcd
#
# Track frame offsets:
# 150
# 13698
# 27283
# 43113
# 63360
# 76422
# 89032
# 100959
# 114927
# 128602
# 142397
# 155900
# 170433
# 184301
# 198940
# 213036
# 226944
# 242834
# 256290
# 275020
#
# Disc length: 3845 seconds
#
#
# Revision: 0
# Processed by: cddbd v1.5.2PL0 Copyright (c) Steve Scherf et al.
# Submitted via: FreeRIP 2.96 
#
DISCID=1f0f0314
DTITLE=FELIPE E FALCAO - AS 20 MAIS  vol.03
DYEAR=2007
DGENRE=SERTANEJA
TTITLE0=VOU MANDAR O PAULO ATRAS
TTITLE1=E PRA LA QUE EU VOU
TTITLE2=PORTA DO MUNDO
TTITLE3=PRA SEMPRE SEU RETRATO
TTITLE4=NOIS E SIMPRAO DE TUDO
TTITLE5=VESTIDO DE SEDA
TTITLE6=O DE TONTO NAO TEM DONO
TTITLE7=PAIXAO PRA MAIS DE MES
TTITLE8=O KARATE
TTITLE9=EU BEBO SIM
TTITLE10=GRITO DE AMOR
TTITLE11=HOJE TEM SHOW DE BOLA
TTITLE12=O SACO FICOU PRA FORA
TTITLE13=TO INDO EMBORA
TTITLE14=MEU TAXI E UM CACETE
TTITLE15=CADE ELA
TTITLE16=NEM TCHUM
TTITLE17=DA BRIGA
TTITLE18=HEROI SEM MEDALHA
TTITLE19=MATA DE SAUDADE
EXTD=
EXTT0=
EXTT1=
EXTT2=
EXTT3=
EXTT4=
EXTT5=
EXTT6=
EXTT7=
EXTT8=
EXTT9=
EXTT10=
EXTT11=
EXTT12=
EXTT13=
EXTT14=
EXTT15=
EXTT16=
EXTT17=
EXTT18=
EXTT19=
PLAYORDER=
